<mxfile host="app.diagrams.net" modified="2023-08-14T14:56:17.823Z" agent="5.0 (Macintosh; Intel Mac OS X 10_15_7) AppleWebKit/605.1.15 (KHTML, like Gecko) Version/16.1 Safari/605.1.15" etag="sbMZSU2-vLFsXBOebIwt" version="21.0.2" type="github">
  <diagram name="第 1 页" id="euD6tUMiN6V8_NP_tVHj">
    <mxGraphModel dx="2385" dy="1618" grid="1" gridSize="10" guides="1" tooltips="1" connect="1" arrows="1" fold="1" page="1" pageScale="1" pageWidth="2339" pageHeight="3300" math="0" shadow="0">
      <root>
        <mxCell id="0" />
        <mxCell id="1" parent="0" />
        <mxCell id="8crVEMkfUsmXLjrP_zNh-2" value="&lt;font style=&quot;font-size: 38px;&quot;&gt;D-Cache&lt;/font&gt;" style="rounded=0;whiteSpace=wrap;html=1;" parent="1" vertex="1">
          <mxGeometry x="1370" y="520" width="630" height="270" as="geometry" />
        </mxCell>
        <mxCell id="8crVEMkfUsmXLjrP_zNh-34" style="edgeStyle=orthogonalEdgeStyle;rounded=0;orthogonalLoop=1;jettySize=auto;html=1;exitX=1;exitY=0.5;exitDx=0;exitDy=0;entryX=0;entryY=0.5;entryDx=0;entryDy=0;dashed=1;dashPattern=8 8;" parent="1" source="8crVEMkfUsmXLjrP_zNh-3" target="8crVEMkfUsmXLjrP_zNh-5" edge="1">
          <mxGeometry relative="1" as="geometry" />
        </mxCell>
        <mxCell id="8crVEMkfUsmXLjrP_zNh-3" value="&lt;font style=&quot;font-size: 38px;&quot;&gt;L1 Hardware&lt;br&gt;Prefetcher&lt;br&gt;(Stream, Stride...)&lt;br&gt;&lt;/font&gt;" style="rounded=0;whiteSpace=wrap;html=1;shadow=0;" parent="1" vertex="1">
          <mxGeometry x="410" y="945" width="320" height="180" as="geometry" />
        </mxCell>
        <mxCell id="8crVEMkfUsmXLjrP_zNh-35" style="edgeStyle=orthogonalEdgeStyle;rounded=0;orthogonalLoop=1;jettySize=auto;html=1;exitX=1;exitY=0.5;exitDx=0;exitDy=0;entryX=0;entryY=0.5;entryDx=0;entryDy=0;dashed=1;dashPattern=8 8;" parent="1" source="8crVEMkfUsmXLjrP_zNh-4" target="8crVEMkfUsmXLjrP_zNh-6" edge="1">
          <mxGeometry relative="1" as="geometry" />
        </mxCell>
        <mxCell id="8crVEMkfUsmXLjrP_zNh-4" value="&lt;font style=&quot;font-size: 38px;&quot;&gt;L2 Hardware&lt;br&gt;Prefetcher&lt;br&gt;(SMS...)&lt;br&gt;&lt;/font&gt;" style="rounded=0;whiteSpace=wrap;html=1;" parent="1" vertex="1">
          <mxGeometry x="410" y="1165" width="320" height="180" as="geometry" />
        </mxCell>
        <mxCell id="8crVEMkfUsmXLjrP_zNh-23" style="edgeStyle=orthogonalEdgeStyle;rounded=0;orthogonalLoop=1;jettySize=auto;html=1;exitX=0.5;exitY=1;exitDx=0;exitDy=0;entryX=0;entryY=0.5;entryDx=0;entryDy=0;dashed=1;dashPattern=8 8;" parent="1" source="8crVEMkfUsmXLjrP_zNh-5" target="8crVEMkfUsmXLjrP_zNh-20" edge="1">
          <mxGeometry relative="1" as="geometry" />
        </mxCell>
        <mxCell id="8crVEMkfUsmXLjrP_zNh-39" style="edgeStyle=orthogonalEdgeStyle;rounded=0;orthogonalLoop=1;jettySize=auto;html=1;exitX=0.5;exitY=0;exitDx=0;exitDy=0;entryX=0.75;entryY=1;entryDx=0;entryDy=0;dashed=1;dashPattern=8 8;" parent="1" source="8crVEMkfUsmXLjrP_zNh-5" target="8crVEMkfUsmXLjrP_zNh-37" edge="1">
          <mxGeometry relative="1" as="geometry">
            <mxPoint x="380" y="640" as="targetPoint" />
            <Array as="points">
              <mxPoint x="990" y="818" />
              <mxPoint x="270" y="818" />
              <mxPoint x="270" y="624" />
            </Array>
          </mxGeometry>
        </mxCell>
        <mxCell id="8crVEMkfUsmXLjrP_zNh-5" value="&lt;font style=&quot;font-size: 38px;&quot;&gt;Prefetch Filter&lt;br&gt;&lt;/font&gt;" style="rounded=0;whiteSpace=wrap;html=1;" parent="1" vertex="1">
          <mxGeometry x="820" y="990" width="340" height="90" as="geometry" />
        </mxCell>
        <mxCell id="8crVEMkfUsmXLjrP_zNh-24" style="edgeStyle=orthogonalEdgeStyle;rounded=0;orthogonalLoop=1;jettySize=auto;html=1;exitX=0.5;exitY=1;exitDx=0;exitDy=0;entryX=0;entryY=0.5;entryDx=0;entryDy=0;dashed=1;dashPattern=8 8;" parent="1" source="8crVEMkfUsmXLjrP_zNh-6" target="8crVEMkfUsmXLjrP_zNh-17" edge="1">
          <mxGeometry relative="1" as="geometry" />
        </mxCell>
        <mxCell id="8crVEMkfUsmXLjrP_zNh-6" value="&lt;font style=&quot;font-size: 38px;&quot;&gt;Prefetch Filter&lt;br&gt;&lt;/font&gt;" style="rounded=0;whiteSpace=wrap;html=1;" parent="1" vertex="1">
          <mxGeometry x="820" y="1210" width="340" height="90" as="geometry" />
        </mxCell>
        <mxCell id="8crVEMkfUsmXLjrP_zNh-28" style="edgeStyle=orthogonalEdgeStyle;rounded=0;orthogonalLoop=1;jettySize=auto;html=1;exitX=1;exitY=0.5;exitDx=0;exitDy=0;entryX=0;entryY=0.5;entryDx=0;entryDy=0;" parent="1" source="8crVEMkfUsmXLjrP_zNh-8" target="8crVEMkfUsmXLjrP_zNh-16" edge="1">
          <mxGeometry relative="1" as="geometry" />
        </mxCell>
        <mxCell id="8crVEMkfUsmXLjrP_zNh-8" value="&lt;font style=&quot;font-size: 38px;&quot;&gt;load pipe line0&lt;br&gt;&lt;/font&gt;" style="rounded=0;whiteSpace=wrap;html=1;" parent="1" vertex="1">
          <mxGeometry x="810" y="520" width="340" height="90" as="geometry" />
        </mxCell>
        <mxCell id="8crVEMkfUsmXLjrP_zNh-29" style="edgeStyle=orthogonalEdgeStyle;rounded=0;orthogonalLoop=1;jettySize=auto;html=1;exitX=1;exitY=0.5;exitDx=0;exitDy=0;entryX=0;entryY=0.5;entryDx=0;entryDy=0;" parent="1" source="8crVEMkfUsmXLjrP_zNh-9" target="8crVEMkfUsmXLjrP_zNh-16" edge="1">
          <mxGeometry relative="1" as="geometry" />
        </mxCell>
        <mxCell id="8crVEMkfUsmXLjrP_zNh-9" value="&lt;font style=&quot;font-size: 38px;&quot;&gt;load pipe line1&lt;br&gt;&lt;/font&gt;" style="rounded=0;whiteSpace=wrap;html=1;" parent="1" vertex="1">
          <mxGeometry x="810" y="610" width="340" height="90" as="geometry" />
        </mxCell>
        <mxCell id="8crVEMkfUsmXLjrP_zNh-30" style="edgeStyle=orthogonalEdgeStyle;rounded=0;orthogonalLoop=1;jettySize=auto;html=1;exitX=1;exitY=0.5;exitDx=0;exitDy=0;entryX=0;entryY=0.5;entryDx=0;entryDy=0;" parent="1" source="8crVEMkfUsmXLjrP_zNh-10" target="8crVEMkfUsmXLjrP_zNh-16" edge="1">
          <mxGeometry relative="1" as="geometry" />
        </mxCell>
        <mxCell id="8crVEMkfUsmXLjrP_zNh-10" value="&lt;font style=&quot;font-size: 38px;&quot;&gt;hybrid pipe line&lt;br&gt;&lt;/font&gt;" style="rounded=0;whiteSpace=wrap;html=1;" parent="1" vertex="1">
          <mxGeometry x="810" y="700" width="340" height="90" as="geometry" />
        </mxCell>
        <mxCell id="8crVEMkfUsmXLjrP_zNh-11" value="" style="group" parent="1" vertex="1" connectable="0">
          <mxGeometry x="1380" y="1320" width="800" height="340" as="geometry" />
        </mxCell>
        <mxCell id="8crVEMkfUsmXLjrP_zNh-1" value="&lt;font style=&quot;font-size: 38px;&quot;&gt;L2 Cache&lt;/font&gt;" style="rounded=0;whiteSpace=wrap;html=1;" parent="8crVEMkfUsmXLjrP_zNh-11" vertex="1">
          <mxGeometry width="800" height="340" as="geometry" />
        </mxCell>
        <mxCell id="8crVEMkfUsmXLjrP_zNh-7" value="&lt;font style=&quot;font-size: 38px;&quot;&gt;L2 Prefetch Queue&lt;br&gt;&lt;/font&gt;" style="rounded=0;whiteSpace=wrap;html=1;" parent="8crVEMkfUsmXLjrP_zNh-11" vertex="1">
          <mxGeometry width="340" height="90" as="geometry" />
        </mxCell>
        <mxCell id="8crVEMkfUsmXLjrP_zNh-33" style="edgeStyle=orthogonalEdgeStyle;rounded=0;orthogonalLoop=1;jettySize=auto;html=1;exitX=0.5;exitY=1;exitDx=0;exitDy=0;entryX=0.5;entryY=0;entryDx=0;entryDy=0;" parent="1" source="8crVEMkfUsmXLjrP_zNh-16" target="8crVEMkfUsmXLjrP_zNh-1" edge="1">
          <mxGeometry relative="1" as="geometry" />
        </mxCell>
        <mxCell id="8crVEMkfUsmXLjrP_zNh-53" style="edgeStyle=orthogonalEdgeStyle;rounded=0;orthogonalLoop=1;jettySize=auto;html=1;exitX=0;exitY=0.5;exitDx=0;exitDy=0;entryX=0;entryY=0.5;entryDx=0;entryDy=0;dashed=1;dashPattern=8 8;" parent="1" source="8crVEMkfUsmXLjrP_zNh-16" target="8crVEMkfUsmXLjrP_zNh-3" edge="1">
          <mxGeometry relative="1" as="geometry">
            <Array as="points">
              <mxPoint x="1300" y="745" />
              <mxPoint x="1300" y="880" />
              <mxPoint x="300" y="880" />
              <mxPoint x="300" y="1035" />
            </Array>
          </mxGeometry>
        </mxCell>
        <mxCell id="8crVEMkfUsmXLjrP_zNh-54" style="edgeStyle=orthogonalEdgeStyle;rounded=0;orthogonalLoop=1;jettySize=auto;html=1;exitX=0;exitY=0.5;exitDx=0;exitDy=0;entryX=0;entryY=0.5;entryDx=0;entryDy=0;dashed=1;dashPattern=8 8;" parent="1" source="8crVEMkfUsmXLjrP_zNh-16" target="8crVEMkfUsmXLjrP_zNh-4" edge="1">
          <mxGeometry relative="1" as="geometry">
            <Array as="points">
              <mxPoint x="1300" y="745" />
              <mxPoint x="1300" y="880" />
              <mxPoint x="300" y="880" />
              <mxPoint x="300" y="1255" />
            </Array>
          </mxGeometry>
        </mxCell>
        <mxCell id="8crVEMkfUsmXLjrP_zNh-16" value="&lt;font style=&quot;font-size: 38px;&quot;&gt;MSHR&lt;br&gt;&lt;/font&gt;" style="rounded=0;whiteSpace=wrap;html=1;" parent="1" vertex="1">
          <mxGeometry x="1370" y="700" width="480" height="90" as="geometry" />
        </mxCell>
        <mxCell id="8crVEMkfUsmXLjrP_zNh-17" value="&lt;font style=&quot;font-size: 38px;&quot;&gt;Buffer&lt;br&gt;&lt;/font&gt;" style="rounded=0;whiteSpace=wrap;html=1;" parent="1" vertex="1">
          <mxGeometry x="1130" y="1310" width="130" height="90" as="geometry" />
        </mxCell>
        <mxCell id="8crVEMkfUsmXLjrP_zNh-18" value="&lt;font style=&quot;font-size: 38px;&quot;&gt;Buffer&lt;br&gt;&lt;/font&gt;" style="rounded=0;whiteSpace=wrap;html=1;" parent="1" vertex="1">
          <mxGeometry x="1140" y="1320" width="130" height="90" as="geometry" />
        </mxCell>
        <mxCell id="8crVEMkfUsmXLjrP_zNh-26" value="" style="edgeStyle=orthogonalEdgeStyle;rounded=0;orthogonalLoop=1;jettySize=auto;html=1;dashed=1;dashPattern=8 8;" parent="1" source="8crVEMkfUsmXLjrP_zNh-19" edge="1">
          <mxGeometry relative="1" as="geometry">
            <mxPoint x="1550" y="1320" as="targetPoint" />
            <Array as="points">
              <mxPoint x="1340" y="1360" />
              <mxPoint x="1340" y="1270" />
              <mxPoint x="1550" y="1270" />
            </Array>
          </mxGeometry>
        </mxCell>
        <mxCell id="8crVEMkfUsmXLjrP_zNh-19" value="&lt;font style=&quot;font-size: 38px;&quot;&gt;Buffer&lt;br&gt;&lt;/font&gt;" style="rounded=0;whiteSpace=wrap;html=1;" parent="1" vertex="1">
          <mxGeometry x="1150" y="1330" width="130" height="90" as="geometry" />
        </mxCell>
        <mxCell id="8crVEMkfUsmXLjrP_zNh-20" value="&lt;font style=&quot;font-size: 38px;&quot;&gt;Buffer&lt;br&gt;&lt;/font&gt;" style="rounded=0;whiteSpace=wrap;html=1;" parent="1" vertex="1">
          <mxGeometry x="1130" y="1090" width="130" height="90" as="geometry" />
        </mxCell>
        <mxCell id="8crVEMkfUsmXLjrP_zNh-21" value="&lt;font style=&quot;font-size: 38px;&quot;&gt;Buffer&lt;br&gt;&lt;/font&gt;" style="rounded=0;whiteSpace=wrap;html=1;" parent="1" vertex="1">
          <mxGeometry x="1140" y="1100" width="130" height="90" as="geometry" />
        </mxCell>
        <mxCell id="8crVEMkfUsmXLjrP_zNh-25" style="edgeStyle=orthogonalEdgeStyle;rounded=0;orthogonalLoop=1;jettySize=auto;html=1;exitX=1;exitY=0.5;exitDx=0;exitDy=0;entryX=0.5;entryY=0;entryDx=0;entryDy=0;dashed=1;dashPattern=8 8;" parent="1" source="8crVEMkfUsmXLjrP_zNh-22" target="8crVEMkfUsmXLjrP_zNh-7" edge="1">
          <mxGeometry relative="1" as="geometry" />
        </mxCell>
        <mxCell id="8crVEMkfUsmXLjrP_zNh-22" value="&lt;font style=&quot;font-size: 38px;&quot;&gt;Buffer&lt;br&gt;&lt;/font&gt;" style="rounded=0;whiteSpace=wrap;html=1;" parent="1" vertex="1">
          <mxGeometry x="1150" y="1110" width="130" height="90" as="geometry" />
        </mxCell>
        <mxCell id="8crVEMkfUsmXLjrP_zNh-27" style="edgeStyle=orthogonalEdgeStyle;rounded=0;orthogonalLoop=1;jettySize=auto;html=1;exitX=1;exitY=0.25;exitDx=0;exitDy=0;entryX=1;entryY=0.5;entryDx=0;entryDy=0;" parent="1" source="8crVEMkfUsmXLjrP_zNh-1" target="8crVEMkfUsmXLjrP_zNh-2" edge="1">
          <mxGeometry relative="1" as="geometry">
            <Array as="points">
              <mxPoint x="2290" y="1405" />
              <mxPoint x="2290" y="655" />
            </Array>
          </mxGeometry>
        </mxCell>
        <mxCell id="8crVEMkfUsmXLjrP_zNh-40" style="edgeStyle=orthogonalEdgeStyle;rounded=0;orthogonalLoop=1;jettySize=auto;html=1;exitX=0.5;exitY=0;exitDx=0;exitDy=0;entryX=0;entryY=0.25;entryDx=0;entryDy=0;" parent="1" source="8crVEMkfUsmXLjrP_zNh-37" edge="1">
          <mxGeometry relative="1" as="geometry">
            <mxPoint x="810" y="572.5" as="targetPoint" />
          </mxGeometry>
        </mxCell>
        <mxCell id="8crVEMkfUsmXLjrP_zNh-37" value="" style="shape=trapezoid;perimeter=trapezoidPerimeter;whiteSpace=wrap;html=1;fixedSize=1;direction=south;" parent="1" vertex="1">
          <mxGeometry x="530" y="470" width="60" height="205" as="geometry" />
        </mxCell>
        <mxCell id="8crVEMkfUsmXLjrP_zNh-38" value="" style="endArrow=classic;html=1;rounded=0;entryX=0.25;entryY=1;entryDx=0;entryDy=0;" parent="1" target="8crVEMkfUsmXLjrP_zNh-37" edge="1">
          <mxGeometry width="50" height="50" relative="1" as="geometry">
            <mxPoint x="270" y="521" as="sourcePoint" />
            <mxPoint x="290" y="500" as="targetPoint" />
          </mxGeometry>
        </mxCell>
        <mxCell id="8crVEMkfUsmXLjrP_zNh-46" style="edgeStyle=orthogonalEdgeStyle;rounded=0;orthogonalLoop=1;jettySize=auto;html=1;exitX=0.5;exitY=0;exitDx=0;exitDy=0;entryX=0;entryY=0.5;entryDx=0;entryDy=0;" parent="1" source="8crVEMkfUsmXLjrP_zNh-41" target="8crVEMkfUsmXLjrP_zNh-9" edge="1">
          <mxGeometry relative="1" as="geometry" />
        </mxCell>
        <mxCell id="8crVEMkfUsmXLjrP_zNh-41" value="" style="shape=trapezoid;perimeter=trapezoidPerimeter;whiteSpace=wrap;html=1;fixedSize=1;direction=south;" parent="1" vertex="1">
          <mxGeometry x="550" y="552.5" width="60" height="205" as="geometry" />
        </mxCell>
        <mxCell id="8crVEMkfUsmXLjrP_zNh-47" style="edgeStyle=orthogonalEdgeStyle;rounded=0;orthogonalLoop=1;jettySize=auto;html=1;exitX=0.5;exitY=0;exitDx=0;exitDy=0;entryX=0;entryY=0.5;entryDx=0;entryDy=0;" parent="1" source="8crVEMkfUsmXLjrP_zNh-42" target="8crVEMkfUsmXLjrP_zNh-10" edge="1">
          <mxGeometry relative="1" as="geometry" />
        </mxCell>
        <mxCell id="8crVEMkfUsmXLjrP_zNh-42" value="" style="shape=trapezoid;perimeter=trapezoidPerimeter;whiteSpace=wrap;html=1;fixedSize=1;direction=south;" parent="1" vertex="1">
          <mxGeometry x="570" y="642.5" width="60" height="205" as="geometry" />
        </mxCell>
        <mxCell id="jGWAwebLhqMYa1Z6GTrq-1" value="&lt;font style=&quot;font-size: 40px;&quot;&gt;L2 cache refill&lt;/font&gt;" style="text;html=1;strokeColor=none;fillColor=none;align=center;verticalAlign=middle;whiteSpace=wrap;rounded=0;" vertex="1" parent="1">
          <mxGeometry x="2090" y="520" width="200" height="170" as="geometry" />
        </mxCell>
        <mxCell id="jGWAwebLhqMYa1Z6GTrq-3" value="&lt;span style=&quot;font-size: 40px;&quot;&gt;missed Acquire&amp;nbsp;&lt;br&gt;reqs&lt;br&gt;&lt;/span&gt;" style="text;html=1;strokeColor=none;fillColor=none;align=center;verticalAlign=middle;whiteSpace=wrap;rounded=0;" vertex="1" parent="1">
          <mxGeometry x="1630" y="847.5" width="290" height="190" as="geometry" />
        </mxCell>
        <mxCell id="jGWAwebLhqMYa1Z6GTrq-4" value="&lt;font style=&quot;font-size: 40px;&quot;&gt;D-Cache&lt;br&gt;misses&lt;br&gt;&lt;/font&gt;" style="text;html=1;strokeColor=none;fillColor=none;align=center;verticalAlign=middle;whiteSpace=wrap;rounded=0;" vertex="1" parent="1">
          <mxGeometry x="1170" y="430" width="200" height="170" as="geometry" />
        </mxCell>
        <mxCell id="jGWAwebLhqMYa1Z6GTrq-5" value="&lt;font style=&quot;font-size: 40px;&quot;&gt;&lt;i&gt;&lt;font color=&quot;#4d4d4d&quot;&gt;demand miss or prefetch hit train reqs&lt;/font&gt;&lt;/i&gt;&lt;br&gt;&lt;/font&gt;" style="text;html=1;strokeColor=none;fillColor=none;align=center;verticalAlign=middle;whiteSpace=wrap;rounded=0;" vertex="1" parent="1">
          <mxGeometry x="90" y="990" width="200" height="170" as="geometry" />
        </mxCell>
        <mxCell id="jGWAwebLhqMYa1Z6GTrq-6" value="&lt;font style=&quot;font-size: 40px;&quot;&gt;&lt;i&gt;&lt;font color=&quot;#4d4d4d&quot;&gt;l1 prefetches&lt;/font&gt;&lt;/i&gt;&lt;br&gt;&lt;/font&gt;" style="text;html=1;strokeColor=none;fillColor=none;align=center;verticalAlign=middle;whiteSpace=wrap;rounded=0;" vertex="1" parent="1">
          <mxGeometry x="100" y="630" width="200" height="170" as="geometry" />
        </mxCell>
        <mxCell id="jGWAwebLhqMYa1Z6GTrq-7" value="&lt;font style=&quot;font-size: 40px;&quot;&gt;&lt;i&gt;&lt;font color=&quot;#4d4d4d&quot;&gt;l2 prefetches&lt;/font&gt;&lt;/i&gt;&lt;br&gt;&lt;/font&gt;" style="text;html=1;strokeColor=none;fillColor=none;align=center;verticalAlign=middle;whiteSpace=wrap;rounded=0;" vertex="1" parent="1">
          <mxGeometry x="1350" y="1010" width="200" height="170" as="geometry" />
        </mxCell>
        <mxCell id="jGWAwebLhqMYa1Z6GTrq-8" value="&lt;font style=&quot;font-size: 40px;&quot;&gt;loads from issue queue&lt;br&gt;&lt;/font&gt;" style="text;html=1;strokeColor=none;fillColor=none;align=center;verticalAlign=middle;whiteSpace=wrap;rounded=0;" vertex="1" parent="1">
          <mxGeometry x="130" y="360" width="200" height="170" as="geometry" />
        </mxCell>
      </root>
    </mxGraphModel>
  </diagram>
</mxfile>
